<svg xmlns="http://www.w3.org/2000/svg" viewBox="0 0 52.11 52.11"><defs><style>.cls-1{fill:#fff;stroke:#ac915c;stroke-miterlimit:10;}.cls-2{fill:#ac915c;}</style></defs><g id="圖層_2" data-name="圖層 2"><g id="main_element" data-name="main element"><circle class="cls-1" cx="26.06" cy="26.06" r="25.56" transform="translate(-10.79 26.06) rotate(-45)"/><path class="cls-2" d="M26.06,8.16a48.15,48.15,0,0,1-3.13,7.32c-2.7-.46-4.54,2.26-3.88,5h0c2.21,7.77,12.49,2.21,16.11,9.63a40,40,0,0,1,8.79-4C33,22.21,29.9,19.1,26.06,8.16Z"/><path class="cls-2" d="M33.53,31.27h0"/><path class="cls-2" d="M33.53,31.27C30.09,24.59,20.16,30,17.37,21.75a38.5,38.5,0,0,1-9.21,4.31C19.1,29.9,22.21,33,26.06,44a47.17,47.17,0,0,1,3.09-7.25c3.21,1.43,5.94-2.18,4.38-5.43"/></g></g></svg>