<svg xmlns="http://www.w3.org/2000/svg" viewBox="0 0 644.58 227.7"><defs><style>.cls-1{fill:#fff;}</style></defs><g id="圖層_2" data-name="圖層 2"><g id="main_element" data-name="main element"><path class="cls-1" d="M213.49,48.07c3.74.29,6.18-2,6.76-5.55.41-2.53-1.09-5.73-3.33-6.63-1.42-.57-2.21-1.11,1.18-4.83,10.81-11.89,31.41-24.41,50.5-26,41.59-3.46,62.15,14,68,18.7a63.12,63.12,0,0,1,22.21,32.72,68.74,68.74,0,0,1,2.61,20c0,8.64-.33,57.41-.33,78,2.85-.72,10.78-.62,14,.94-2.1-3.18-2.09-6.51-2.09-11.87,0-24.38.25-63.19.25-66.72,0-17.94-4.32-38.23-26.74-55.43A102.56,102.56,0,0,0,268.1,1.16a86.16,86.16,0,0,0-41.21,16.9c-9.2,7-13.57,11.32-16.72,16.49-1.66,2.72-2.44,5.78-2.21,7.42C208.46,45.66,209.81,47.78,213.49,48.07Zm251.9,133.74v-4.76c-16-1.92-25.71-7-36.53-19.39C420.34,147.93,416,135,416.05,119.2c.18-14.59,4.14-24.37,10.14-28a30,30,0,0,0-9.51,1.28,36.46,36.46,0,0,0-7,3.4,34.61,34.61,0,0,0-5.18,13.43C398.47,146.13,426.88,179.68,465.39,181.81ZM440,88.31c-3-3.16-7.34-6-11.06-6.81-1.56-.22,2.09-3.56,2.52-4.17,6.87-7.6,17.73-13.64,33.89-16.39V56.21a66,66,0,0,0-30.81,9.17C423,72.12,414,81.73,409.73,91.31a26.05,26.05,0,0,1,12.64-4.57C427.88,85.93,433.44,86.54,440,88.31Zm70.08-7.94c8.52,9.72,12.83,22.66,12.81,38.46-.18,14.58-4.14,24.36-10.14,28a30.05,30.05,0,0,0,9.52-1.28,36.73,36.73,0,0,0,7-3.39,34.65,34.65,0,0,0,5.17-13.43c6-36.81-22.39-70.36-60.9-72.49V61C489.62,62.9,499.3,68,510.12,80.37Zm-36.53,96.72v4.72a66.12,66.12,0,0,0,30.81-9.16c11.59-6.74,20.62-16.36,24.86-25.93a26.13,26.13,0,0,1-12.65,4.57c-5.51.81-11.07.19-17.67-1.58,3,3.16,7.35,6,11.07,6.82,1.55.22-2.1,3.55-2.53,4.17C500.61,168.3,489.75,174.33,473.59,177.09ZM454.94,121.2c8.89,3.13,11.42,5.66,14.55,14.56,3.13-8.9,5.66-11.43,14.55-14.56-8.89-3.12-11.42-5.66-14.55-14.55C466.36,115.54,463.83,118.08,454.94,121.2Zm-97.69,80.44a25.64,25.64,0,0,1-15-1.76c-11-5.09-24.9-27.08-30.06-35.41-5.33-8.61-11.33-19.33-16.34-28.8-1.25-2.37.51-3.55,2-4.71,2-1.57,13.57-6.75,21.49-12.39,8.6-6.12,18.18-19.59,11.09-38.39-3.65-9.67-12-14.44-15.94-16.31-14.91-7.09-37.68-4.78-46.05-1.51-5,2-8.26,3.31-10.28,3.47a6.29,6.29,0,0,1-3.47-.44c-.54-.32-1.29-.82-1.29-2.9,0,0,0,0,0,0V60.13a1.45,1.45,0,0,1,.43-1,1.5,1.5,0,0,1,1-.43h8.15V57.19l-31.14.38v1.52h8.15a1.47,1.47,0,0,1,1.43,1.42V119c-2.58,2-6.23,4.22-6.74,8.59-.58,4.94,3.11,8.46,4,9.45a12.38,12.38,0,0,1,1.51-9.94c1.06-1.68,4.37-4.42,7.85-5.7a51.92,51.92,0,0,1,11.2-2.3,45.36,45.36,0,0,1,6.08.18c7.29.71,11.8,5.38,14.36,7.64s5.45,5.38,10.43,14.7c4.52,8.45,12,21.6,14.5,25.62,7,11.13,16.81,27.09,25.84,34.91,6.05,5.23,11.14,7.49,16.45,8.24,10.55,1.51,18.64-1.12,22-8V188.55C367.13,195.34,362.76,200.68,357.25,201.64Zm-74.89-83.8c-4.33-2.09-11.07-5.25-20.12-5.4a41.49,41.49,0,0,0-8.91.7V86.24a19.74,19.74,0,0,1,4-11.91,18,18,0,0,1,4.82-4.18c9.25-5.84,24.55-6.47,24.55-6.47,6.21,0,15.48-.18,22.36,4.74a32.53,32.53,0,0,1,12.1,17.09c.66,2.36,3.12,14.07-3.64,24.21a30.61,30.61,0,0,1-11,9.86A34.14,34.14,0,0,1,292,123.75,57.08,57.08,0,0,0,282.36,117.84Zm358.92,40.61c0-8.34-22.55-20.85-45.41-35-19.68-12.15-33.37-21.72-33.37-33.41,0-18.3,14.14-27.71,27.12-27.71A37.64,37.64,0,0,1,623,81.47a3.72,3.72,0,0,1,.35,1.85c0,2.14,0,8.66,0,8.66h1.5V64.47S616,55.59,593.1,55.59c-25.29,0-41.4,15.81-41.4,34.12S572,117.54,591.06,130c9.19,6,18.18,11.19,26.16,17,5.88,4.31,10.55,7.8,10.55,12.21,0,2.86-10.16,6.8-16,9.74-15.16,7.66-43.43,20.53-46.79,22.06-5.22-.36-9.89-3.44-14-7.66-6.24-6.41-11.4-16.26-9.7-23.41a34.8,34.8,0,0,1-9.84,11.87c1.36,3.23,5.9,11.75,11.22,16.68,4.08,3.79,6.83,6.5,9.72,7.74-11.29,5.63-23.72,11-33.74,14.78-11.55,4.32-25.1,6.47-32,6.47-25.38,0-41.23-13.13-65-31.13-29.46-22.32-43.82-27.8-60.29-27.8a34.7,34.7,0,0,0-18.81,4.95c-1,1.92-5.07,9.6-7.29,13.74,5.82-4.32,15.12-10,22.08-10,21.36,0,31.68,6.12,52,21.41,16.76,12.61,46.85,38.94,70.37,38.94,19.57,0,30.49-3.62,52.31-13.32,10.8-4.8,20.76-9.09,33.78-15.27q31.57-15.53,53-25.66C630.84,167.74,641.28,163.46,641.28,158.45Zm-9.66,16.84a32.58,32.58,0,0,1-9.36,18.77c-6.32,6.13-13.42,7.73-17.36,8.55a42.94,42.94,0,0,1-25.74-2.88l-11.07,5.76a64.22,64.22,0,0,0,19.74,4.71A55,55,0,0,0,612.64,207a51.25,51.25,0,0,0,15.92-9.72c12.1-11,15.15-25.14,16-30.53ZM279.48,132a68.08,68.08,0,0,1-8.1,3,56.05,56.05,0,0,1-7.2,1.38,50,50,0,0,1-11-.36c0-3.19,0-8.93,0-12.15a12.53,12.53,0,0,0-7.67,2.52c-3.9,3-4.2,7.66-4.32,8.54,0,16.77,0,64.6,0,64.6a1.5,1.5,0,0,1-.43.92,2.57,2.57,0,0,1-1.36.48H225.79a2.72,2.72,0,0,1-1.14-.42,2.6,2.6,0,0,1-.94-1.07h0L179.15,60.1l0,0a1.56,1.56,0,0,1,.08-1.06c.27-.38,1-.38,1-.39h5.55v-1.5h-31.2v1.5h9a1.38,1.38,0,0,1,1,.4,1,1,0,0,1,.07.85l-.08.28,0,.12,0-.09c-6.32,20-43.14,136.06-44.25,139.2a2.45,2.45,0,0,1-.94,1.07,2.79,2.79,0,0,1-1,.41H103.65a1.61,1.61,0,0,1-1-.43,1.55,1.55,0,0,1-.43-.93V158.91c0-12.12-4.76-23.86-20.27-28.61-7.79-2.39-17.11-2.89-26.26-3.57-8.79-.75-17.8-2.38-24.58-6.14-6.06-3.37-10.32-9.76-10.32-18.85V60.22a1.53,1.53,0,0,1,.44-1.08,1.5,1.5,0,0,1,1-.43h8.45V57.19H0v1.52H7.85a1.48,1.48,0,0,1,1.42,1.35v40.67c0,12.12,4.64,23.86,20.16,28.61,7.78,2.38,17.1,2.88,26.26,3.57,8.79.74,17.8,2.37,24.57,6.14,6.06,3.36,10.32,9.76,10.32,18.85v41.52a1.55,1.55,0,0,1-.43,1.08,1.61,1.61,0,0,1-1,.43H80.7L80,202.44h62.51v-1.5H128.8a1,1,0,0,1-1.09-1.29l40.23-128a.93.93,0,0,1,1.83,0l40.61,128a1,1,0,0,1-.12.83,1,1,0,0,1-1,.46H197.84v1.5h23.39l18-.06h25.9v-1.45H254.51a1.49,1.49,0,0,1-1-.42,1.55,1.55,0,0,1-.44-1.07s.07-38.24.11-57.11A57.53,57.53,0,0,0,266.64,141c3.14-.79,6.36-1.95,6.6-2a78.21,78.21,0,0,0,8.44-4,5.14,5.14,0,0,0-.81-1.67A5,5,0,0,0,279.48,132ZM178.7,58.69h0c.06.22.12.4.17.56Zm2.19,74.43c-6.8-1-11.29-7.19-13.13-14.09-1.73,7-5.34,12.84-13.13,14.09,6.43,1.48,11.56,4.14,11.56,8.8v53.69c0,1.86-2.37,3.65-4.28,4a.24.24,0,0,0,0,.47c2.66.82,4.32,2.81,5.48,5.86a.43.43,0,0,0,.81,0c1-3.13,2.71-4.84,5.26-5.74a.24.24,0,0,0-.07-.47c-1.79-.24-4-1.76-4-4,0,0,0-53.88,0-53.93C169.35,137.18,174.66,134.54,180.89,133.12ZM21.23,200.5a1.53,1.53,0,0,1-.44-1.08V130.9a29.52,29.52,0,0,1-7-5.07c-2.83-2.77-3.72-5.59-4.75-7.6.12,56.68.18,80.59.2,81v.19a1.5,1.5,0,0,1-.43,1.08,1.61,1.61,0,0,1-1,.43H0v1.51H30.67v-1.51H22.22A1.61,1.61,0,0,1,21.23,200.5Zm69-141.36a1.55,1.55,0,0,1,.43,1.08v68.52a29.35,29.35,0,0,1,7,5.07c2.82,2.76,3.84,5.59,4.87,7.59-.12-56.67-.18-80.58-.21-81v-.19a1.53,1.53,0,0,1,.44-1.08,1.5,1.5,0,0,1,1-.43h5.15V57.19H80.8v1.52h8.45A1.5,1.5,0,0,1,90.25,59.14Z"/></g></g></svg>