<svg xmlns="http://www.w3.org/2000/svg" viewBox="0 0 90.46 90.46"><defs><style>.cls-1{fill:#fff;stroke:#ac915c;stroke-miterlimit:10;}.cls-2{fill:#ac915c;}</style></defs><g id="圖層_2" data-name="圖層 2"><g id="main_element" data-name="main element"><circle class="cls-1" cx="45.23" cy="45.23" r="44.73" transform="translate(-18.74 45.23) rotate(-45)"/><path class="cls-2" d="M18.12,66.72A.45.45,0,0,1,18,66.4V45.76a8.57,8.57,0,0,1-2-1.5A6.76,6.76,0,0,1,14.54,42c0,16.72.05,24.2.06,24.32v.06a.45.45,0,0,1-.13.32.45.45,0,0,1-.3.12H11.86v.45h9.05v-.45h-2.5A.43.43,0,0,1,18.12,66.72Zm24.31.12a.43.43,0,0,1-.42-.39V54c0-3.58-1.41-7-6-8.44a37.19,37.19,0,0,0-7.75-1A18.56,18.56,0,0,1,21,42.72,6.06,6.06,0,0,1,18,37.16V25.35a.45.45,0,0,1,.42-.45h2.5v-.45h-9v.45h2.32a.45.45,0,0,1,.29.13.51.51,0,0,1,.13.27V36.86c0,3.57,1.36,7,5.94,8.44a37.09,37.09,0,0,0,7.74,1.05,18.61,18.61,0,0,1,7.25,1.81,6,6,0,0,1,3,5.56V66.4a.45.45,0,0,1-.13.32.45.45,0,0,1-.3.12H35.66l-.21.45h10s-.12-.37-.15-.45ZM38.48,25a.51.51,0,0,1,.13.32V45.12a8.89,8.89,0,0,1,2,1.49,7.19,7.19,0,0,1,1.44,2.25c0-16.72-.06-23.34-.06-23.46v0a.45.45,0,0,1,.13-.32.43.43,0,0,1,.29-.13H44v-.45H35.69v.45h2.49A.47.47,0,0,1,38.48,25ZM77.63,53.68c0-2.46-6.65-6.14-13.39-10.31-5.81-3.58-9.85-6.41-9.85-9.85a7.89,7.89,0,0,1,8-8.18A11.1,11.1,0,0,1,72.23,31a1.16,1.16,0,0,1,.11.55c0,.63,0,2.55,0,2.55h.44V26s-2.6-2.62-9.36-2.62C56,23.35,51.21,28,51.21,33.41s6,8.21,11.61,11.89c2.71,1.77,5.36,3.3,7.71,5,1.73,1.27,3.11,2.3,3.11,3.6,0,.84-3,2-4.71,2.87-4.47,2.26-12.81,6.06-13.8,6.51A6.61,6.61,0,0,1,51,61.05c-1.85-1.89-3.37-4.8-2.87-6.91a10.13,10.13,0,0,1-2.9,3.51,16.9,16.9,0,0,0,3.31,4.92,12,12,0,0,0,2.87,2.28c1.09.55,2.72,1.25,3.95.83Q64.69,61.09,71,58.11C74.55,56.42,77.63,55.16,77.63,53.68Zm-2.85,5A9.68,9.68,0,0,1,72,64.19a9.83,9.83,0,0,1-5.12,2.52,12.74,12.74,0,0,1-7.59-.85L56,67.56A19.38,19.38,0,0,0,61.86,69,16.28,16.28,0,0,0,69.18,68a15.3,15.3,0,0,0,4.7-2.87,15.63,15.63,0,0,0,4.72-9ZM54.13,54.46c1.1-3.14,2-4,5.14-5.14-3.14-1.1-4-2-5.14-5.13-1.1,3.13-2,4-5.14,5.13C52.13,50.42,53,51.32,54.13,54.46Z"/></g></g></svg>